<?xml version="1.0" encoding="UTF-8"?> <svg xmlns="http://www.w3.org/2000/svg" width="206" height="69" viewBox="0 0 206 69" fill="none"><path d="M195.237 28.4613V29.7843H202.832V28.4613H195.237ZM202.832 23.8765H192.933C192.397 23.8765 192.055 24.0475 192.055 24.4125V29.7843H193.241V25.1995H202.832V23.8765Z" fill="white"></path><path d="M205.775 21.436H188.861V67.923H205.775V21.436Z" fill="#1C95A6"></path><path d="M195.237 64.1703V65.4933H202.832V64.1703H195.237ZM202.832 59.5854H192.933C192.397 59.5854 192.055 59.7565 192.055 60.1215V65.4933H193.241V60.9084H202.832V59.5854Z" fill="white"></path><path d="M201.544 52.8911H192.933C192.397 52.8911 192.055 53.028 192.055 53.3815V57.1452H190.344V58.4796H192.511C192.876 58.4796 193.241 58.2401 193.241 57.955V54.2027H201.726V56.746H202.844V53.7351C202.832 53.2219 202.171 52.8911 201.544 52.8911Z" fill="white"></path><path d="M201.544 46.3901H192.933C192.397 46.3901 192.055 46.527 192.055 46.8806V50.6442H190.344V51.9786H192.511C192.876 51.9786 193.241 51.7505 193.241 51.454V47.7131H201.726V50.2564H202.844V47.2455C202.832 46.7209 202.171 46.3901 201.544 46.3901Z" fill="white"></path><path d="M201.955 39.5811H192.945C192.409 39.5811 192.066 39.7521 192.066 40.1057V45.0213H193.241V40.904H201.658V45.0213H202.844V40.1057C202.844 39.7521 202.491 39.5811 201.955 39.5811Z" fill="white"></path><path d="M201.954 31.3809H193.024C192.397 31.3809 192.055 31.609 192.055 31.9511V38.087H193.252V36.8097L202.832 38.2239V36.9465L193.252 35.5437V32.681H201.646V35.2244H202.832V31.8827C202.844 31.5519 202.49 31.3809 201.954 31.3809Z" fill="white"></path><path d="M195.237 28.4613V29.7843H202.832V28.4613H195.237ZM202.832 23.8765H192.933C192.397 23.8765 192.055 24.0475 192.055 24.4125V29.7843H193.241V25.1995H202.832V23.8765Z" fill="white"></path><path d="M96.7881 21.4131H90.1504V33.7305H96.7881V21.4131Z" fill="white"></path><path d="M88.4983 42.6607V23.1467C88.4983 22.086 88.0534 21.4131 87.1296 21.4131H70.7634V26.705H72.7707V37.3687H70.3984V42.6607H78.0398C78.9636 42.6607 79.4084 41.9878 79.4084 40.9271V26.705H81.8605V42.6607H88.4983Z" fill="white"></path><path d="M115.403 40.9271V23.3177C115.403 22.086 114.764 21.4131 113.875 21.4131H98.0331V26.7392H100.405L97.6681 42.6493H104.386L106.792 26.7392H108.765V37.3573" fill="white"></path><path d="M132.53 26.705V21.4131H116.449V26.705H123.885V42.6607H130.523V26.705H132.53Z" fill="white"></path><path d="M140.664 47.7363V29.3741H133.992V47.7363H140.664ZM150.062 40.1177V23.1584C150.062 22.0977 149.697 21.4248 148.773 21.4248H133.981V26.7167H143.424V38.3499H141.656V42.661H147.849C149.218 42.661 150.062 41.3494 150.062 40.1177Z" fill="white"></path><path d="M169.896 42.1475C169.896 42.022 169.816 41.8053 169.736 41.6342L165.881 35.2474L168.573 32.8752C169.018 32.4988 169.337 31.9057 169.337 31.267V22.8501C169.337 21.9149 168.938 21.4131 167.855 21.4131H161.548V25.7242H163.11V30.5485L157.921 21.4131H151.694C151.329 21.4131 151.135 21.6184 151.135 21.9605C151.135 22.086 151.18 22.2571 151.294 22.4281L155.229 29.2027L152.458 31.6092C152.013 31.9856 151.694 32.5786 151.694 33.2173V41.2122C151.694 42.1475 152.093 42.6493 153.188 42.6493H159.46V38.3382H157.932V33.8104L162.836 42.6493H169.349C169.736 42.6607 169.896 42.444 169.896 42.1475Z" fill="white"></path><path d="M177.662 42.6607V29.3738H170.99V42.6607H177.662ZM186.261 42.6607V23.1467C186.261 22.086 185.817 21.4131 184.893 21.4131H170.99V26.705H179.635V42.6607H186.261Z" fill="white"></path><path d="M74.3778 49.2871H70.4316V67.923H74.3778V49.2871Z" fill="white"></path><path d="M88.849 66.3947V50.6215C88.849 49.7319 88.4726 49.2871 87.6515 49.2871H77.5808C76.7939 49.2871 76.2578 49.7661 76.2578 50.7013V58.4568C76.2578 59.2779 76.5772 59.7113 77.4211 59.7113H83.3289V56.6776H80.2382V52.4805H84.9028V64.7638H76.2578V67.923H87.7769C88.5068 67.923 88.849 67.3299 88.849 66.3947Z" fill="white"></path><path d="M94.6786 49.2871H90.7324V60.0877H94.6786V49.2871Z" fill="white"></path><path d="M102.685 57.1221H96.4121V60.133H102.685V57.1221Z" fill="white"></path><path d="M115.471 67.923V64.7752H113.897V50.8154C113.897 49.8802 113.555 49.2871 112.825 49.2871H103.484V52.4463H109.951V64.7638H103.484V67.923H115.471Z" fill="white"></path><path d="M120.145 49.2871H116.199V60.0877H120.145V49.2871Z" fill="white"></path><path d="M134.266 67.923V64.7752H132.692V50.8154C132.692 49.8802 132.35 49.2871 131.62 49.2871H122.279V52.4463H128.746V64.7638H122.279V67.923H134.266Z" fill="white"></path><path d="M150.051 67.4782C150.051 67.3642 150.017 67.1817 149.925 67.0334L146.55 61.2055L148.979 58.8674C149.355 58.5367 149.583 58.012 149.583 57.4532V50.5531C149.583 49.7434 149.264 49.2986 148.42 49.2986H143.459V52.3437H145.637V58.6165L145.318 59.0613L139.672 49.2986H135.943C135.658 49.2986 135.498 49.4811 135.498 49.7776C135.498 49.8916 135.532 50.0399 135.624 50.1882L139.034 55.9363L136.536 58.3086C136.182 58.6393 135.931 59.1639 135.931 59.7228V66.6685C135.931 67.4896 136.251 67.9344 137.095 67.9344H142.022V64.8893H139.878V58.7306L140.288 58.1717L146.002 67.9344H149.595C149.925 67.923 150.051 67.7405 150.051 67.4782Z" fill="white"></path><path d="M157.303 49.2871H151.35V52.4463H157.303V49.2871Z" fill="white"></path><path d="M170.156 65.6987V50.8151C170.156 49.8799 169.871 49.2868 169.153 49.2868H162.777V46.1162H158.797V51.1801C158.797 51.8073 159.264 52.4346 159.869 52.4346H166.21V64.8661H162.298V67.9113H168.411C169.495 67.9227 170.156 66.7708 170.156 65.6987Z" fill="white"></path><path d="M186.26 67.923V50.8154C186.26 49.8802 185.918 49.2871 185.188 49.2871H172.346V52.4463H173.931V64.7638H171.434V67.923H176.794C177.524 67.923 177.866 67.3299 177.866 66.3947V52.4463H182.314V67.923H186.26Z" fill="white"></path><path d="M108.763 37.3687H106.391V42.6606H114.032C114.922 42.6606 115.401 41.9877 115.401 40.927" fill="white"></path><path d="M29.6581 57.1678C50.5521 -8.94726 100.552 0.461909 100.552 0.461909C59.4024 1.84192 43.4924 57.6354 41.679 68.2193C37.4705 63.7713 33.4446 60.1331 29.6581 57.1678Z" fill="#1C95A6"></path><path d="M32.1216 47.2912C30.8557 50.3249 29.852 53.199 28.7457 56.4723L28.5519 56.2784C27.7877 55.6397 24.446 53.256 19.6103 55.0352C18.0136 55.4914 15.5387 57.0539 15.5387 57.0539C16.4853 56.0161 18.7891 54.5904 18.9944 54.465C14.9342 56.8486 15.1281 57.6242 15.1281 57.6242C14.8544 57.1452 15.1851 56.7004 15.1851 56.7004C15.7668 56.0389 17.4319 54.5904 18.7891 53.5298C18.926 51.6137 19.5191 50.4732 20.3402 49.8003C10.874 43.9837 3.02736 44.5312 0.1875 45.8427C0.506841 45.5348 6.17515 36.7643 32.1216 47.2912Z" fill="#33A997"></path></svg> 